<?xml version="1.0" encoding="utf-8"?>
<!-- Generator: Adobe Illustrator 18.1.1, SVG Export Plug-In . SVG Version: 6.00 Build 0)  -->
<svg version="1.1" id="Layer_1" xmlns="http://www.w3.org/2000/svg" xmlns:xlink="http://www.w3.org/1999/xlink" x="0px" y="0px"
	 viewBox="0 0 30.6 34.8" enable-background="new 0 0 30.6 34.8" xml:space="preserve">
<circle fill="#2D67B0" stroke="#204721" stroke-width="0.25" stroke-miterlimit="10" cx="15.6" cy="16.9" r="11.6"/>
<polygon fill="#204721" stroke="#1F4620" stroke-width="0.25" stroke-miterlimit="10" points="7,9 11.3,11.5 10.9,15.9 9.5,18.1 
	7.6,19.3 7,21 7,23.5 6.3,23.8 4.3,16 4.6,13.1 6,10.3 "/>
<path fill="#204721" stroke="#1F4620" stroke-width="0.25" stroke-miterlimit="10" d="M17.2,9.6c1.3,0.1,2.7,0.1,4,0.2
	c1.3,0.5,2.6,1,3.9,1.5l1.6,6.4l-3.4,3.8l-2.7,3.4L19.1,27l-3.5-2.3l2.7-5.1c-0.6-1.1-1.1-2.3-1.7-3.4c-0.7-0.9-1.5-1.8-2.2-2.7
	l0.6-1.9C15.7,10.9,16.5,10.2,17.2,9.6z"/>
<path fill="#204721" stroke="#1F4620" stroke-width="0.25" stroke-miterlimit="10" d="M8.6,9c0.3-0.3,0.6-0.5,0.9-0.8
	c0.5-0.3,1-0.6,1.4-1c0.6,0.4,1.2,0.7,1.8,1.1c1-0.4,1.9-0.7,2.9-1.1c-0.2-0.6-0.3-1.2-0.5-1.8c-0.4-0.1-0.9-0.1-1.3-0.2
	c-0.4,0.1-0.9,0.2-1.5,0.3c-0.7,0.2-1.2,0.4-1.7,0.6c-0.5,0.5-0.9,1-1.4,1.4C8.9,8,8.5,8.3,8.1,8.6C8,8.7,7.8,8.8,7.6,8.9
	C7.7,9,7.9,9.2,8,9.3c0.2,0.1,0.4,0.2,0.6,0.3C8.6,9.4,8.6,9.2,8.6,9z"/>
</svg>
