<?xml version="1.0" encoding="utf-8"?>
<!-- Generator: Adobe Illustrator 18.1.1, SVG Export Plug-In . SVG Version: 6.00 Build 0)  -->
<svg version="1.1" id="Layer_1" xmlns="http://www.w3.org/2000/svg" xmlns:xlink="http://www.w3.org/1999/xlink" x="0px" y="0px"
	 viewBox="0 0 100 100" enable-background="new 0 0 100 100" xml:space="preserve">
<path fill="#E5A280" stroke="#E5A27F" stroke-width="0.25" stroke-miterlimit="10" d="M84,49.7c0,18.6-15.1,33.7-33.7,33.7
	S16.6,68.4,16.6,49.7c0-1,0-2,0.1-2.9c0.1-0.7,0.1-1.4,0.2-2.1c2.4-16.2,16.4-28.7,33.3-28.7C68.9,16.1,84,31.1,84,49.7z"/>
<path fill="#B76C4B" stroke="#E5A27F" stroke-width="0.25" stroke-miterlimit="10" d="M19,38.4c20.1-1.9,40.1-3.7,60.2-5.6l2.4,5
	c-21.2,0.9-42.3,1.8-63.5,2.7C18.4,39.8,18.7,39.1,19,38.4z"/>
<path fill="#B76C4B" stroke="#E5A27F" stroke-width="0.25" stroke-miterlimit="10" d="M17.3,55c22.1-1.4,44.2-2.8,66.3-4.1
	c0,0.9,0,1.9-0.1,3.1c-0.2,1.2-0.4,2.2-0.7,3c-21.5,0.9-43,1.8-64.5,2.8c0-0.6-0.1-1.4-0.3-2.3C17.9,56.5,17.6,55.7,17.3,55z"/>
<path fill="#B76C4B" stroke="#E5A27F" stroke-width="0.25" stroke-miterlimit="10" d="M20.6,34.6c18.7-1.8,37.5-3.5,56.2-5.3
	l0.4,0.6C58.1,32,39,34.1,19.8,36.3C20.1,35.7,20.4,35.2,20.6,34.6z"/>
<ellipse transform="matrix(0.9851 -0.1721 0.1721 0.9851 -9.2353 12.6551)" fill="#96593E" stroke="#E5A27F" stroke-width="0.25" stroke-miterlimit="10" cx="68.4" cy="59.6" rx="7.5" ry="5"/>
<path fill="#B76C4B" stroke="#E5A27F" stroke-width="0.25" stroke-miterlimit="10" d="M20.8,65.6c19.8-0.3,39.7-0.6,59.5-0.9
	c-0.2,0.3-0.4,0.7-0.6,1c-19.4,0.4-38.8,0.7-58.2,1.1C21.2,66.4,21,66,20.8,65.6z"/>
<path fill="#B76C4B" stroke="#E5A27F" stroke-width="0.25" stroke-miterlimit="10" d="M22.3,68.3c18.6,0,37.2,0.1,55.8,0.1l-1.6,2.2
	c-17.8-0.4-35.7-0.8-53.5-1.1C22.8,69,22.6,68.6,22.3,68.3z"/>
<path fill="#E5A280" stroke="#B76C4B" stroke-width="0.25" stroke-miterlimit="10" d="M84,49.7c0,18.6-15.1,33.7-33.7,33.7
	S16.6,68.4,16.6,49.7c0-1,0-2,0.1-2.9c0.1-0.7,0.1-1.4,0.2-2.1c2.4-16.2,16.4-28.7,33.3-28.7C68.9,16.1,84,31.1,84,49.7z"/>
<path fill="#B76C4B" stroke="#E5A27F" stroke-width="0.25" stroke-miterlimit="10" d="M19,38.4c20.1-1.9,40.1-3.7,60.2-5.6l2.4,5
	c-21.2,0.9-42.3,1.8-63.5,2.7C18.4,39.8,18.7,39.1,19,38.4z"/>
<path fill="#B76C4B" stroke="#E5A27F" stroke-width="0.25" stroke-miterlimit="10" d="M17.3,55c22.1-1.4,44.2-2.8,66.3-4.1
	c0,0.9,0,1.9-0.1,3.1c-0.2,1.2-0.4,2.2-0.7,3c-21.5,0.9-43,1.8-64.5,2.8c-0.2-0.7-0.4-1.5-0.6-2.3C17.6,56.6,17.4,55.8,17.3,55z"/>
<path fill="#B76C4B" stroke="#E5A27F" stroke-width="0.25" stroke-miterlimit="10" d="M20.6,34.6c18.7-1.8,37.5-3.5,56.2-5.3
	l0.4,0.6C58.1,32,39,34.1,19.8,36.3C20.1,35.7,20.4,35.2,20.6,34.6z"/>
<ellipse transform="matrix(0.9851 -0.1721 0.1721 0.9851 -9.2353 12.6551)" fill="#B76C4B" stroke="#E5A27F" stroke-width="0.25" stroke-miterlimit="10" cx="68.4" cy="59.6" rx="7.5" ry="5"/>
<path fill="#B76C4B" stroke="#E5A27F" stroke-width="0.25" stroke-miterlimit="10" d="M20.8,65.6c19.8-0.3,39.7-0.6,59.5-0.9
	c-0.2,0.3-0.4,0.7-0.6,1c-19.4,0.4-38.8,0.7-58.2,1.1C21.2,66.4,21,66,20.8,65.6z"/>
<path fill="#B76C4B" stroke="#E5A27F" stroke-width="0.25" stroke-miterlimit="10" d="M22.3,68.3c18.6,0,37.2,0.1,55.8,0.1l-1.6,2.2
	c-17.8-0.4-35.7-0.8-53.5-1.1C22.8,69,22.6,68.6,22.3,68.3z"/>
</svg>
